<?xml version="1.0" encoding="utf-8"?>
<!DOCTYPE svg PUBLIC "-//W3C//DTD SVG 20010904//EN" "http://www.w3.org/TR/2001/REC-SVG-20010904/DTD/svg10.dtd">
<svg version="1.0" xmlns="http://www.w3.org/2000/svg" width="225px" height="225px" viewBox="0 0 225 225" preserveAspectRatio="xMidYMid meet">
 <g fill="#234a59">
  <path d="M34.3 159.1 c-4.2 -1.1 -9.9 -4.6 -9.6 -5.9 0.2 -0.7 -0.4 -0.9 -1.5 -0.5 -1.3 0.5 -1.2 0.1 0.5 -1.8 l2.3 -2.3 2.2 2.1 c3.8 3.4 6.4 4.3 12.5 4.3 10.6 0 15.3 -5.2 15.3 -16.9 l0 -5.9 -2.8 2.8 c-9.4 9.3 -27.4 4 -31.1 -9.2 -5.4 -19.1 17.1 -32.9 31.7 -19.5 l2.2 2 0 -3.1 c0 -2.8 0.3 -3.2 2.6 -3.2 l2.6 0 -0.4 22.3 c-0.2 16.4 -0.7 22.8 -1.7 24.7 -1.9 3.6 -5.2 7 -8.1 8.5 -3.3 1.7 -12.7 2.6 -16.7 1.6z m15 -25.8 c9.6 -4.9 8.8 -21.5 -1.3 -26.5 -11.4 -5.8 -24.3 4.8 -21 17.1 2.7 10.1 12.7 14.3 22.3 9.4z"/>
  <path d="M190.3 139.3 c-6.1 -2.1 -13.6 -9.2 -16.4 -15.5 -4.9 -11.3 -2.3 -26.3 6.2 -34.7 8.4 -8.4 22.7 -10.9 33.3 -5.7 7.4 3.6 8.5 5.1 5.5 7.5 -2.2 1.8 -2.4 1.8 -3.6 0.1 -2.2 -3.2 -11.2 -6.3 -16.4 -5.7 -16 1.9 -25.4 17.4 -20.6 33.8 3.2 10.8 11.9 17.3 23.2 17.3 6.5 0 9.4 -1.1 14 -5.5 2.6 -2.4 3.2 -2.6 4.8 -1.5 2.2 1.7 1.5 3.7 -2.4 6.5 -6.8 5.1 -18.8 6.6 -27.6 3.4z"/>
  <path d="M78 111 l0 -29 11.8 0 c18.2 0.1 24.2 3.8 24.2 15.1 0 5.1 -0.4 6.3 -3.1 9.4 -1.7 1.9 -4.8 4 -7 4.6 -2.1 0.7 -3.9 1.5 -3.9 1.9 0 0.3 2.7 5.1 6.1 10.5 3.4 5.5 7 11.5 8.1 13.3 l2 3.2 -3.4 0 c-3.2 -0.1 -3.6 -0.6 -11.1 -13.5 l-7.9 -13.5 -5.4 0 -5.4 0 0 13.5 0 13.5 -2.5 0 -2.5 0 0 -29z m24.6 -4.9 c6.9 -3.1 8.2 -11.1 2.7 -16.3 -2.2 -2 -3.6 -2.3 -12.4 -2.6 l-9.9 -0.4 0 10.6 0 10.6 7.8 0 c5.4 0 8.9 -0.6 11.8 -1.9z"/>
  <path d="M127 110.9 l0 -29.1 12.8 0.3 c10.5 0.3 13.3 0.7 16.2 2.4 4.8 2.8 7.2 7.8 6.7 13.8 -0.8 9.7 -6.3 13.4 -21.1 14.4 l-9.7 0.6 0.3 13.4 0.3 13.3 -2.7 0 -2.8 0 0 -29.1z m22.2 -3.9 c4.7 -1.3 7.8 -5.2 7.8 -9.7 0 -7.7 -4.1 -10.3 -16.5 -10.3 l-8.5 0 0 10.5 0 10.5 6.8 0 c3.7 0 8.4 -0.5 10.4 -1z"/>
  <path d="M9.7 93.2 c-6.4 -6.4 -6.3 -9.2 0.1 -15.5 3.2 -3.2 5.6 -4.7 7.4 -4.7 3 0 5.7 2.5 3.6 3.4 -0.7 0.3 -0.4 0.5 0.7 0.3 1.2 -0.1 3.4 1.4 5.8 4 3.8 4.2 4 4.2 11.5 4.6 l7.7 0.3 -8 0 c-7.9 -0.1 -8 0 -11.2 3.4 -1.8 1.9 -3.3 3.8 -3.3 4.4 0 0.5 -0.3 0.6 -0.6 0.3 -0.4 -0.3 -1.5 0.5 -2.6 1.8 -2.9 3.7 -5.8 3.1 -11.1 -2.3z"/>
  <path d="M57.1 91.6 c-0.9 -1.1 -0.9 -1.6 0.1 -2 0.7 -0.3 0.3 -0.4 -0.9 -0.2 -1.2 0.2 -2.8 -0.3 -3.5 -1.1 -0.7 -0.8 -2.1 -1.9 -3.3 -2.3 -1.4 -0.6 -1.5 -0.9 -0.4 -0.9 0.8 -0.1 3 -1.7 4.9 -3.6 3.3 -3.4 3.4 -3.4 5.9 -1.8 1.4 0.9 3.4 2.5 4.3 3.6 1.6 1.8 1.6 2.1 0.1 4.1 -0.9 1.2 -2.7 3 -3.9 3.9 -1.9 1.4 -2.4 1.4 -3.3 0.3z m-2.6 -6.6 c0.3 -0.5 -0.1 -1 -0.9 -1 -0.8 0 -1.8 0.5 -2.1 1 -0.3 0.6 0.1 1 0.9 1 0.8 0 1.8 -0.4 2.1 -1z"/>
 </g>
 <g fill="#083d4e">
  <path d="M38 159 c0 -0.5 1.1 -1 2.5 -1 1.4 0 2.5 0.5 2.5 1 0 0.6 -1.1 1 -2.5 1 -1.4 0 -2.5 -0.4 -2.5 -1z"/>
  <path d="M46 158 c0 -0.5 0.7 -1 1.5 -1 0.8 0 1.5 0.5 1.5 1 0 0.6 -0.7 1 -1.5 1 -0.8 0 -1.5 -0.4 -1.5 -1z"/>
  <path d="M204 140 c0 -0.5 0.9 -1 2 -1 1.1 0 2 0.5 2 1 0 0.6 -0.9 1 -2 1 -1.1 0 -2 -0.4 -2 -1z"/>
  <path d="M38 139 c0 -0.5 1.4 -1 3 -1 1.7 0 3 0.5 3 1 0 0.6 -1.3 1 -3 1 -1.6 0 -3 -0.4 -3 -1z"/>
  <path d="M78 139.1 c0 -0.9 2.4 -2.1 4.1 -2.1 0.5 0 0.9 0.7 0.9 1.5 0 0.9 -0.9 1.5 -2.5 1.5 -1.4 0 -2.5 -0.4 -2.5 -0.9z"/>
  <path d="M109 138.6 c0 -1.2 0.6 -1.3 3.3 -0.4 4.5 1.5 4.6 1.8 0.4 1.8 -2.6 0 -3.7 -0.4 -3.7 -1.4z"/>
  <path d="M127 138.6 c0 -0.9 0.8 -1.2 2.5 -0.8 3.7 0.7 4.1 2.2 0.6 2.2 -2 0 -3.1 -0.5 -3.1 -1.4z"/>
  <path d="M21.2 121 c0 -1.9 0.2 -2.7 0.5 -1.7 0.2 0.9 0.2 2.5 0 3.5 -0.3 0.9 -0.5 0.1 -0.5 -1.8z"/>
  <path d="M100 111 c0 -0.5 0.7 -1 1.5 -1 0.8 0 1.5 0.5 1.5 1 0 0.6 -0.7 1 -1.5 1 -0.8 0 -1.5 -0.4 -1.5 -1z"/>
  <path d="M149 111 c0 -0.5 0.7 -1 1.5 -1 0.8 0 1.5 0.5 1.5 1 0 0.6 -0.7 1 -1.5 1 -0.8 0 -1.5 -0.4 -1.5 -1z"/>
  <path d="M22.2 92 c-1.1 -1.8 -0.9 -2 1.4 -2 2.4 0 2.5 0.2 1.3 1.8 -0.7 0.9 -1.4 1.8 -1.4 1.9 0 0.1 -0.6 -0.7 -1.3 -1.7z"/>
  <path d="M52.1 87.7 c-0.7 -0.9 -2.9 -1.8 -4.9 -2 -2.2 -0.3 -1.8 -0.3 1.1 -0.2 5.1 0.2 6.1 0.7 5.5 2.5 -0.2 0.8 -0.8 0.7 -1.7 -0.3z"/>
  <path d="M83.2 85.8 c0.6 -1.6 4.9 -2.2 10.5 -1.3 6.9 1 5 2.5 -3.3 2.5 -5.6 0 -7.5 -0.3 -7.2 -1.2z"/>
  <path d="M132.2 85.8 c0.5 -1.5 5.9 -2.2 10.5 -1.3 5.7 1 3.6 2.5 -3.8 2.5 -5.2 0 -7 -0.3 -6.7 -1.2z"/>
  <path d="M194 85 c0 -0.5 0.7 -1 1.5 -1 0.8 0 1.5 0.5 1.5 1 0 0.6 -0.7 1 -1.5 1 -0.8 0 -1.5 -0.4 -1.5 -1z"/>
  <path d="M22.8 78.8 c0.9 -0.9 1.5 -0.9 2.4 0 0.9 0.9 0.7 1.2 -1.2 1.2 -1.9 0 -2.1 -0.3 -1.2 -1.2z"/>
 </g>
 <g fill="#59c5c4">
  <path d="M9.7 93.2 c-3.7 -3.7 -6.7 -7.2 -6.7 -7.8 0 -0.5 3 -4 6.8 -7.7 6.5 -6.5 6.8 -6.6 9 -5.1 2.7 1.8 2.9 3.4 0.4 3.4 -1 0 -3.9 2.2 -6.5 4.8 l-4.8 4.8 5.6 5.3 c4.7 4.4 5.4 5.5 4.5 7.2 -0.6 1 -1.2 1.9 -1.3 1.9 -0.1 0 -3.3 -3 -7 -6.8z"/>
  <path d="M57 91.5 c-1 -1.2 -1 -1.5 0.2 -1.5 0.8 0 2.5 -1.1 3.7 -2.4 l2.2 -2.3 -3.1 -2.7 c-3.2 -2.7 -6.1 -2.7 -3.9 0 0.9 1.1 0.6 1.4 -1.7 1.4 l-2.8 0 2.9 -3 c2.8 -2.9 2.9 -2.9 5.4 -1.3 1.4 0.9 3.4 2.5 4.3 3.6 1.6 1.8 1.6 2.1 0.1 4.1 -0.9 1.2 -2.7 3 -3.9 3.9 -1.9 1.4 -2.4 1.5 -3.4 0.2z"/>
  <path d="M53.2 88.8 c-1.9 -1.9 -1.4 -2.8 1.3 -2.8 2.7 0 3.2 1.2 1.2 2.9 -1 0.8 -1.7 0.7 -2.5 -0.1z"/>
 </g>
 <g fill="#00afac">
  <path d="M15.1 98.7 c-1.9 -2.4 -0.3 -4.8 2.8 -4.1 3.5 0.9 3.4 0.7 0.7 3.3 -1.9 1.8 -2.5 1.9 -3.5 0.8z"/>
  <path d="M20 89.5 l-3.4 -3.5 6.9 0 6.9 0 -3.4 3.5 c-1.9 1.9 -3.4 3.5 -3.5 3.5 -0.1 0 -1.6 -1.6 -3.5 -3.5z"/>
  <path d="M52.5 88 c-1.8 -2 -1.7 -2 0.8 -2 3.1 0 4.2 1.3 2.3 2.9 -1 0.8 -1.7 0.6 -3.1 -0.9z"/>
  <path d="M20.8 80.8 l3.2 -3.3 3.2 3.3 3.3 3.2 -6.5 0 -6.5 0 3.3 -3.2z"/>
  <path d="M18 74.9 c0 -0.5 -0.4 -0.7 -1 -0.4 -0.6 0.3 -0.7 -0.1 -0.4 -0.9 0.8 -2.1 1.7 -2 3.9 0.4 1.8 1.9 1.7 2 -0.3 2 -1.2 0 -2.2 -0.5 -2.2 -1.1z"/>
 </g>
</svg>